{
  "accessors": [
    {
      "bufferView": 1,
      "componentType": 5126,
      "count": 9145,
      "max": [
        20.53342056274414,
        18.671180725097656,
        43.626651763916016
      ],
      "min": [
        -19.965810775756836,
        -0.023900000378489494,
        -3.348520040512085
      ],
      "type": "VEC3"
    },
    {
      "bufferView": 1,
      "byteOffset": 109740,
      "componentType": 5126,
      "count": 9145,
      "max": [
        1.0,
        1.0,
        1.0
      ],
      "min": [
        -1.0,
        -1.0,
        -1.0
      ],
      "type": "VEC3"
    },
    {
      "bufferView": 0,
      "componentType": 5125,
      "count": 14928,
      "type": "SCALAR"
    },
    {
      "bufferView": 1,
      "byteOffset": 219480,
      "componentType": 5126,
      "count": 48,
      "max": [
        19.305849075317383,
        9.873390197753906,
        41.63610076904297
      ],
      "min": [
        -18.82086944580078,
        5.9994001388549805,
        -1.16621994972229
      ],
      "type": "VEC3"
    },
    {
      "bufferView": 1,
      "byteOffset": 220056,
      "componentType": 5126,
      "count": 48,
      "max": [
        0.0,
        1.0,
        -0.0
      ],
      "min": [
        0.0,
        1.0,
        -0.0
      ],
      "type": "VEC3"
    },
    {
      "bufferView": 0,
      "byteOffset": 59712,
      "componentType": 5125,
      "count": 72,
      "type": "SCALAR"
    },
    {
      "bufferView": 1,
      "byteOffset": 220632,
      "componentType": 5126,
      "count": 12,
      "max": [
        16.650529861450195,
        7.168499946594238,
        26.174049377441406
      ],
      "min": [
        -0.6956400275230408,
        0.0866599977016449,
        10.585700035095215
      ],
      "type": "VEC3"
    },
    {
      "bufferView": 1,
      "byteOffset": 220776,
      "componentType": 5126,
      "count": 12,
      "max": [
        0.011569993570446968,
        0.002709998283535242,
        -0.9999294281005859
      ],
      "min": [
        0.0,
        -0.0,
        -1.0
      ],
      "type": "VEC3"
    },
    {
      "bufferView": 0,
      "byteOffset": 60000,
      "componentType": 5125,
      "count": 18,
      "type": "SCALAR"
    }
  ],
  "asset": {
    "extras": {
      "author": "Helyx Silveira (https://sketchfab.com/helyxsilveira)",
      "license": "CC-BY-4.0 (http://creativecommons.org/licenses/by/4.0/)",
      "source": "https://sketchfab.com/3d-models/castle-fortress-130ed7e4af5d45b98d8b7dd6a424d729",
      "title": "Castle Fortress"
    },
    "generator": "Sketchfab-12.68.0",
    "version": "2.0"
  },
  "bufferViews": [
    {
      "buffer": 0,
      "byteLength": 60072,
      "name": "floatBufferViews",
      "target": 34963
    },
    {
      "buffer": 0,
      "byteLength": 220920,
      "byteOffset": 60072,
      "byteStride": 12,
      "name": "floatBufferViews",
      "target": 34962
    }
  ],
  "buffers": [
    {
      "byteLength": 280992,
      "uri": "scene.bin"
    }
  ],
  "materials": [
    {
      "doubleSided": true,
      "name": "Material.001",
      "pbrMetallicRoughness": {
        "baseColorFactor": [
          0.5294905264361716,
          0.33650360604549107,
          0.15217650162362542,
          1.0
        ],
        "metallicFactor": 0.0,
        "roughnessFactor": 0.6
      }
    },
    {
      "doubleSided": true,
      "name": "Material",
      "pbrMetallicRoughness": {
        "baseColorFactor": [
          0.08885209117079816,
          0.08726271616059779,
          0.08721960386668488,
          1.0
        ],
        "metallicFactor": 0.0,
        "roughnessFactor": 0.6
      }
    },
    {
      "doubleSided": true,
      "name": "Material.004",
      "pbrMetallicRoughness": {
        "baseColorFactor": [
          0.0020548508178306287,
          0.0020036465121313156,
          0.0019275591742482006,
          1.0
        ],
        "metallicFactor": 0.0,
        "roughnessFactor": 0.6
      }
    }
  ],
  "meshes": [
    {
      "name": "Cube.017_0",
      "primitives": [
        {
          "attributes": {
            "NORMAL": 1,
            "POSITION": 0
          },
          "indices": 2,
          "material": 0,
          "mode": 4
        }
      ]
    },
    {
      "name": "Cube.017_1",
      "primitives": [
        {
          "attributes": {
            "NORMAL": 4,
            "POSITION": 3
          },
          "indices": 5,
          "material": 1,
          "mode": 4
        }
      ]
    },
    {
      "name": "Cube.017_2",
      "primitives": [
        {
          "attributes": {
            "NORMAL": 7,
            "POSITION": 6
          },
          "indices": 8,
          "material": 2,
          "mode": 4
        }
      ]
    }
  ],
  "nodes": [
    {
      "children": [
        1
      ],
      "matrix": [
        1.0,
        0.0,
        0.0,
        0.0,
        0.0,
        2.220446049250313e-16,
        -1.0,
        0.0,
        0.0,
        1.0,
        2.220446049250313e-16,
        0.0,
        0.0,
        0.0,
        0.0,
        1.0
      ],
      "name": "Sketchfab_model"
    },
    {
      "children": [
        2
      ],
      "name": "Root"
    },
    {
      "children": [
        3,
        4,
        5
      ],
      "matrix": [
        1.31633,
        0.0,
        0.0,
        0.0,
        0.0,
        -0.0,
        1.0,
        0.0,
        0.0,
        -1.0,
        -0.0,
        0.0,
        -1.66019,
        -0.3485100000000001,
        0.0,
        1.0
      ],
      "name": "Cube.017"
    },
    {
      "mesh": 0,
      "name": "Cube.017_0"
    },
    {
      "mesh": 1,
      "name": "Cube.017_1"
    },
    {
      "mesh": 2,
      "name": "Cube.017_2"
    }
  ],
  "scene": 0,
  "scenes": [
    {
      "name": "Sketchfab_Scene",
      "nodes": [
        0
      ]
    }
  ]
}
